:SAMPLES-PER-SECOND 24
:FULLY-SPECIFIED
:DEGREES
143
root  -0.00646177 39.6732 1.51878 -169.612 2.10075 -178.52
RightUpLeg  -5.26287 -10.2142 -3.14811
RightLeg  14.1925 -20.6843 -4.47408
RightFoot  -9.77207 -0.186168 8.72014
RightToes  -2.09809e-008 3.77894e-005 6.81332e-007
Spine  -3.8273 3.95114 1.96259
Spine1  5.13019 4.43704 -2.33769
HEad  -22.6396 2.95308 -1.8483
LeftShoulder1  6.95487 -12.8263 -36.5333
LeftArm  2.81585 27.5602 -31.0813
LeftForeArm  165.245 -70.8897 -151.455
LeftHand  -0.213608 -1.82768 3.61076
RightShoulder  3.68317 6.41803 31.2285
RightArm  17.2468 -9.97208 37.0698
RightForeArm  141.369 77.5594 130.22
RightHand  -0.809936 8.42074 -7.16409
LeftUpLeg  -19.3378 -5.66879 4.94114
LeftLeg  18.5867 13.3194 5.26118
LeftFoot  -7.71317 0.289019 -7.6617
LeftToes  1.24773e-006 1.46318e-008 1.32523e-009
144
root  -0.377374 39.7676 1.50719 -170.114 -1.08308 -178.503
RightUpLeg  -5.79098 -15.0088 -3.43183
RightLeg  17.0986 -18.2573 -5.68913
RightFoot  -8.91425 -0.29103 10.8223
RightToes  -2.09809e-008 3.77894e-005 6.81332e-007
Spine  -4.29825 4.07072 1.94965
Spine1  5.77281 4.61382 -2.54847
HEad  -21.9286 0.979366 -0.164912
LeftShoulder1  6.89375 -12.7673 -36.3178
LeftArm  2.63275 26.7263 -31.694
LeftForeArm  165.182 -70.9407 -151.368
LeftHand  -0.186292 -1.99284 3.11072
RightShoulder  3.74147 6.4873 31.5578
RightArm  16.1481 -12.5309 38.7507
RightForeArm  140.497 77.6718 129.516
RightHand  -0.804501 8.33106 -7.16094
LeftUpLeg  -18.4884 -6.66155 4.45532
LeftLeg  16.7103 11.1906 4.26645
LeftFoot  -7.51685 0.282108 -7.10139
LeftToes  1.24773e-006 1.46318e-008 1.32523e-009
145
root  -0.766393 39.8724 1.44712 -170.696 -3.42041 -178.349
RightUpLeg  -5.97563 -18.3669 -3.92439
RightLeg  19.4031 -16.3714 -6.46228
RightFoot  -7.57591 -0.476008 12.8364
RightToes  -2.09809e-008 3.77894e-005 6.81332e-007
Spine  -4.8352 4.25569 2.1533
Spine1  6.08971 4.85815 -2.92642
HEad  -20.0335 -0.266594 1.00163
LeftShoulder1  6.74451 -12.5934 -35.861
LeftArm  2.00733 26.5518 -32.6922
LeftForeArm  165.539 -70.711 -151.765
LeftHand  -0.154261 -1.89049 2.63515
RightShoulder  3.78314 6.53849 31.7833
RightArm  16.2758 -14.0402 39.5835
RightForeArm  140.566 77.6001 129.84
RightHand  -0.700649 8.58366 -6.18648
LeftUpLeg  -17.2536 -7.68794 3.75218
LeftLeg  14.8789 10.118 4.09897
LeftFoot  -6.9918 0.272924 -6.0889
LeftToes  1.24773e-006 1.46318e-008 1.32523e-009
146
root  -1.09977 39.9847 1.32584 -170.952 -5.65533 -178.339
RightUpLeg  -6.24135 -20.3334 -4.48721
RightLeg  21.3868 -16.4032 -7.15851
RightFoot  -5.7892 -0.712428 13.8156
RightToes  -2.09809e-008 3.77894e-005 6.81332e-007
Spine  -6.24875 4.37155 0.763702
Spine1  6.67478 4.73065 -1.39605
HEad  -18.1791 -1.31203 2.01229
LeftShoulder1  6.64302 -12.4493 -35.6094
LeftArm  1.10144 27.1095 -33.4795
LeftForeArm  166.113 -70.4119 -152.286
LeftHand  -0.16655 -1.92704 2.82032
RightShoulder  3.80174 6.53206 31.9944
RightArm  17.6612 -14.3717 39.3671
RightForeArm  142.047 77.4068 131.024
RightHand  -0.641709 8.91049 -5.58138
LeftUpLeg  -16.2427 -8.78188 3.00946
LeftLeg  13.2878 8.89273 4.07764
LeftFoot  -6.37707 0.279328 -5.56109
LeftToes  1.24773e-006 1.46318e-008 1.32523e-009
147
root  -1.39502 40.0801 1.19135 -171.097 -7.82372 -178.18
RightUpLeg  -6.48451 -22.3783 -4.75802
RightLeg  23.0973 -16.6422 -7.83314
RightFoot  -4.44372 -0.905624 14.451
RightToes  -2.09809e-008 3.77894e-005 6.81332e-007
Spine  -7.79388 4.46743 -0.468319
Spine1  7.30807 4.61186 0.121806
HEad  -17.1035 -2.3644 3.0491
LeftShoulder1  6.5822 -12.3545 -35.4781
LeftArm  0.496049 27.9645 -33.5968
LeftForeArm  166.236 -70.3964 -152.326
LeftHand  -0.224279 -1.91235 3.74589
RightShoulder  3.81657 6.53564 32.1294
RightArm  19.5658 -13.9512 39.147
RightForeArm  142.359 77.4677 130.851
RightHand  -0.625937 8.9622 -5.43647
LeftUpLeg  -15.2258 -8.70158 2.45851
LeftLeg  11.482 6.60923 3.80851
LeftFoot  -6.21878 0.271156 -5.22776
LeftToes  1.24773e-006 1.46318e-008 1.32523e-009
